<svg width="1200" height="630" viewBox="0 0 1200 630" fill="none" xmlns="http://www.w3.org/2000/svg">
  <defs>
    <!-- Professional gradients -->
    <linearGradient id="bgGradient" x1="0%" y1="0%" x2="100%" y2="100%">
      <stop offset="0%" stop-color="#1e6091"/>
      <stop offset="50%" stop-color="#2370a8"/>
      <stop offset="100%" stop-color="#297bbe"/>
    </linearGradient>
    <radialGradient id="earthGrad" cx="40%" cy="30%" r="60%">
      <stop offset="0%" stop-color="#4da3d9"/>
      <stop offset="60%" stop-color="#2370a8"/>
      <stop offset="100%" stop-color="#154365"/>
    </radialGradient>
    <linearGradient id="satelliteGrad" x1="0%" y1="0%" x2="100%" y2="100%">
      <stop offset="0%" stop-color="#f59e0b"/>
      <stop offset="100%" stop-color="#dc2626"/>
    </linearGradient>
    <linearGradient id="textGradient" x1="0%" y1="0%" x2="100%" y2="0%">
      <stop offset="0%" stop-color="#ffffff"/>
      <stop offset="100%" stop-color="#e2e8f0"/>
    </linearGradient>
    <!-- Glow effects -->
    <filter id="titleGlow">
      <feGaussianBlur stdDeviation="4" result="coloredBlur"/>
      <feMerge> 
        <feMergeNode in="coloredBlur"/>
        <feMergeNode in="SourceGraphic"/>
      </feMerge>
    </filter>
    <filter id="softGlow">
      <feGaussianBlur stdDeviation="2" result="coloredBlur"/>
      <feMerge> 
        <feMergeNode in="coloredBlur"/>
        <feMergeNode in="SourceGraphic"/>
      </feMerge>
    </filter>
  </defs>
  
  <!-- Background -->
  <rect width="1200" height="630" fill="url(#bgGradient)"/>
  
  <!-- Geometric patterns for depth -->
  <circle cx="1000" cy="100" r="150" fill="#ffffff" opacity="0.03"/>
  <circle cx="200" cy="500" r="120" fill="#ffffff" opacity="0.02"/>
  <circle cx="1100" cy="550" r="80" fill="#ffffff" opacity="0.04"/>
  
  <!-- Main Earth visualization -->
  <g id="earthSystem" transform="translate(800, 315)">
    <!-- Main Earth -->
    <circle cx="0" cy="0" r="140" fill="url(#earthGrad)"/>
    
    <!-- Continental outlines -->
    <path d="M-60 -40c15-8 35-3 50 3s30 20 42 15c12-5 15-18 27-15s18 15 6 24c-9 12-21 15-30 6s-27-6-39 3c-15 12-24 24-36 21s-21-15-12-24c3-9 6-18-3-21s-18 0-6-12z" fill="#297bbe" opacity="0.9"/>
    <path d="M-40 -80c12-6 24 0 32 9s15 15 26 12c9-3 15-12 21-6s12 9 3 15c-6 6-15 9-21 3s-15-3-21 3c-9 6-12 12-18 9s-12-9-6-15c3-6 3-12-3-12s-12 0-3-18z" fill="#297bbe" opacity="0.7"/>
    <path d="M40 60c6-3 12 3 15 6s6 9 12 6c3-3 6-6 9-3s6 3 0 6c-3 3-6 6-9 3s-9 0-12 3c-3 3-6 6-9 3s-6-3-3-6c0-3 0-6-3-6s-6 0 0-12z" fill="#297bbe" opacity="0.6"/>
    
    <!-- Satellite orbits -->
    <circle cx="0" cy="0" r="180" stroke="#4da3d9" stroke-width="2" stroke-dasharray="8 8" fill="none" opacity="0.7">
      <animateTransform attributeName="transform" type="rotate" values="0 0 0;360 0 0" dur="30s" repeatCount="indefinite"/>
    </circle>
    <circle cx="0" cy="0" r="220" stroke="#4da3d9" stroke-width="1.5" stroke-dasharray="12 12" fill="none" opacity="0.5">
      <animateTransform attributeName="transform" type="rotate" values="360 0 0;0 0 0" dur="45s" repeatCount="indefinite"/>
    </circle>
    
    <!-- Satellites -->
    <g transform="rotate(0)" transform-origin="0 0">
      <g transform="translate(0,-200)">
        <rect x="-12" y="-6" width="24" height="12" fill="url(#satelliteGrad)" rx="3"/>
        <rect x="-18" y="-3" width="6" height="6" fill="#059669" rx="2"/>
        <rect x="12" y="-3" width="6" height="6" fill="#059669" rx="2"/>
        <circle cx="0" cy="0" r="3" fill="#ffffff"/>
      </g>
      <animateTransform attributeName="transform" type="rotate" values="0 0 0;360 0 0" dur="20s" repeatCount="indefinite"/>
    </g>
    
    <g transform="rotate(120)" transform-origin="0 0">
      <g transform="translate(0,-180)">
        <rect x="-10" y="-5" width="20" height="10" fill="url(#satelliteGrad)" rx="2"/>
        <rect x="-15" y="-2.5" width="5" height="5" fill="#059669" rx="1.5"/>
        <rect x="10" y="-2.5" width="5" height="5" fill="#059669" rx="1.5"/>
        <circle cx="0" cy="0" r="2.5" fill="#ffffff"/>
      </g>
      <animateTransform attributeName="transform" type="rotate" values="120 0 0;480 0 0" dur="25s" repeatCount="indefinite"/>
    </g>
    
    <g transform="rotate(240)" transform-origin="0 0">
      <g transform="translate(0,-220)">
        <rect x="-11" y="-5.5" width="22" height="11" fill="url(#satelliteGrad)" rx="2.5"/>
        <rect x="-16" y="-2.5" width="5" height="5" fill="#059669" rx="1.5"/>
        <rect x="11" y="-2.5" width="5" height="5" fill="#059669" rx="1.5"/>
        <circle cx="0" cy="0" r="2.5" fill="#ffffff"/>
      </g>
      <animateTransform attributeName="transform" type="rotate" values="240 0 0;600 0 0" dur="35s" repeatCount="indefinite"/>
    </g>
    
    <!-- Data streams -->
    <path d="M-160,-120 Q-80,-60 -20,-20" stroke="#059669" stroke-width="3" fill="none" stroke-dasharray="6 6" opacity="0.8">
      <animate attributeName="stroke-dashoffset" values="0;12" dur="2s" repeatCount="indefinite"/>
    </path>
    <path d="M120,-140 Q60,-70 20,-30" stroke="#059669" stroke-width="3" fill="none" stroke-dasharray="6 6" opacity="0.8">
      <animate attributeName="stroke-dashoffset" values="0;12" dur="2.5s" repeatCount="indefinite"/>
    </path>
    <path d="M-40,160 Q-20,80 0,40" stroke="#059669" stroke-width="3" fill="none" stroke-dasharray="6 6" opacity="0.8">
      <animate attributeName="stroke-dashoffset" values="0;12" dur="1.8s" repeatCount="indefinite"/>
    </path>
    
    <!-- Central fusion core -->
    <circle cx="0" cy="0" r="20" fill="#059669" opacity="0.9" filter="url(#softGlow)">
      <animate attributeName="r" values="20;25;20" dur="4s" repeatCount="indefinite"/>
    </circle>
    <circle cx="0" cy="0" r="12" fill="#ffffff"/>
    <circle cx="0" cy="0" r="6" fill="#1e6091"/>
  </g>
  
  <!-- Main title -->
  <g id="titleSection">
    <text x="100" y="180" font-family="Arial, sans-serif" font-size="84" font-weight="bold" fill="url(#textGradient)" filter="url(#titleGlow)">
      SIT-FUSE
    </text>
    
    <!-- Subtitle -->
    <text x="100" y="230" font-family="Arial, sans-serif" font-size="32" fill="#e2e8f0" opacity="0.9">
      Self-supervised multi-sensor earth observation
    </text>
    <text x="100" y="270" font-family="Arial, sans-serif" font-size="32" fill="#e2e8f0" opacity="0.9">
      and instance tracking framework
    </text>
  </g>
  
  <!-- Key features -->
  <g id="features" transform="translate(100, 350)">
    <!-- Feature icons -->
    <g id="feature1">
      <circle cx="0" cy="0" r="18" fill="rgba(255,255,255,0.15)" stroke="#ffffff" stroke-width="2"/>
      <path d="M-8,-4 Q0,-8 8,-4 Q0,0 -8,-4" fill="#ffffff" opacity="0.9"/>
      <circle cx="0" cy="0" r="3" fill="#f59e0b"/>
      <text x="35" y="6" font-family="Arial, sans-serif" font-size="22" fill="#ffffff">Self-Supervised Learning</text>
    </g>
    
    <g id="feature2" transform="translate(0, 50)">
      <circle cx="0" cy="0" r="18" fill="rgba(255,255,255,0.15)" stroke="#ffffff" stroke-width="2"/>
      <circle cx="-6" cy="0" r="4" fill="#4da3d9"/>
      <circle cx="6" cy="0" r="4" fill="#059669"/>
      <circle cx="0" cy="0" r="2" fill="#ffffff"/>
      <text x="35" y="6" font-family="Arial, sans-serif" font-size="22" fill="#ffffff">Multi-Sensor Fusion</text>
    </g>
    
    <g id="feature3" transform="translate(0, 100)">
      <circle cx="0" cy="0" r="18" fill="rgba(255,255,255,0.15)" stroke="#ffffff" stroke-width="2"/>
      <path d="M-6,-6 L-6,6 L6,6 L6,-6 Z" fill="#059669"/>
      <circle cx="-3" cy="-3" r="2" fill="#f59e0b"/>
      <circle cx="3" cy="3" r="2" fill="#dc2626"/>
      <text x="35" y="6" font-family="Arial, sans-serif" font-size="22" fill="#ffffff">Environmental Applications</text>
    </g>
  </g>
  
  <!-- Application examples -->
  <g id="applications" transform="translate(100, 520)">
    <text x="0" y="0" font-family="Arial, sans-serif" font-size="18" fill="#e2e8f0" opacity="0.8">
      🔥 Wildfire Detection  •  🌊 Water Quality  •  🌍 Land Use Change  •  💨 Atmospheric Tracking
    </text>
  </g>
  
  <!-- GitHub/Project info -->
  <g id="projectInfo" transform="translate(100, 580)">
    <text x="0" y="0" font-family="Arial, sans-serif" font-size="16" fill="#94a3b8">
      github.com/yunks128/SIT_FUSE  •  Apache-2.0 License  •  Open Source
    </text>
  </g>
  
  <!-- Decorative elements -->
  <g id="decorative" opacity="0.1">
    <!-- Data flow lines -->
    <path d="M0,100 Q200,150 400,120 Q600,90 800,130" stroke="#ffffff" stroke-width="2" fill="none"/>
    <path d="M0,200 Q300,250 600,220 Q900,190 1200,230" stroke="#ffffff" stroke-width="1.5" fill="none"/>
    <path d="M0,400 Q200,450 500,420 Q800,390 1200,430" stroke="#ffffff" stroke-width="1" fill="none"/>
    
    <!-- Connecting nodes -->
    <circle cx="200" cy="145" r="3" fill="#ffffff"/>
    <circle cx="600" cy="215" r="3" fill="#ffffff"/>
    <circle cx="500" cy="425" r="3" fill="#ffffff"/>
  </g>
</svg>