<svg width="32" height="32" viewBox="0 0 32 32" fill="none" xmlns="http://www.w3.org/2000/svg">
  <defs>
    <radialGradient id="earthGrad" cx="0.4" cy="0.3" r="0.8">
      <stop offset="0%" stop-color="#2370a8"/>
      <stop offset="100%" stop-color="#154365"/>
    </radialGradient>
  </defs>
  
  <!-- Main Earth sphere -->
  <circle cx="16" cy="16" r="13" fill="url(#earthGrad)" stroke="#297bbe" stroke-width="1"/>
  
  <!-- Simplified landmass -->
  <path d="M9 14c2-1 4 0 6 1s4 3 5 2c2-1 2-2 3-2s2 2 1 3c-1 2-2 2-4 1s-3-1-5 0c-2 1-3 3-4 2s-2-2-1-3c0-1 1-2 0-3s-2 0-1-1z" fill="#4da3d9" opacity="0.9"/>
  
  <!-- Satellite orbits -->
  <circle cx="16" cy="16" r="18" stroke="#4da3d9" stroke-width="0.5" stroke-dasharray="2 2" fill="none" opacity="0.7"/>
  <circle cx="16" cy="16" r="21" stroke="#4da3d9" stroke-width="0.3" stroke-dasharray="3 3" fill="none" opacity="0.5"/>
  
  <!-- Two satellites -->
  <g transform="translate(29,9)">
    <rect x="-1.5" y="-0.8" width="3" height="1.6" fill="#f59e0b" rx="0.5"/>
    <rect x="-2.5" y="-0.3" width="1" height="0.6" fill="#059669" rx="0.3"/>
    <rect x="1.5" y="-0.3" width="1" height="0.6" fill="#059669" rx="0.3"/>
  </g>
  
  <g transform="translate(4,21)">
    <rect x="-1.5" y="-0.8" width="3" height="1.6" fill="#f59e0b" rx="0.5"/>
    <rect x="-2.5" y="-0.3" width="1" height="0.6" fill="#059669" rx="0.3"/>
    <rect x="1.5" y="-0.3" width="1" height="0.6" fill="#059669" rx="0.3"/>
  </g>
  
  <!-- Data transmission lines -->
  <path d="M28 10 L18 14" stroke="#059669" stroke-width="1" stroke-dasharray="1 2" opacity="0.8"/>
  <path d="M5 20 L14 18" stroke="#059669" stroke-width="1" stroke-dasharray="1 2" opacity="0.8"/>
  
  <!-- Central core -->
  <circle cx="16" cy="16" r="2.5" fill="#059669"/>
  <circle cx="16" cy="16" r="1.5" fill="#ffffff"/>
  <circle cx="16" cy="16" r="0.8" fill="#1e6091"/>
</svg>