<svg width="64" height="64" viewBox="0 0 64 64" fill="none" xmlns="http://www.w3.org/2000/svg">
  <!-- Earth circle with gradient -->
  <defs>
    <radialGradient id="earthGradient" cx="0.4" cy="0.3" r="0.8">
      <stop offset="0%" stop-color="#2370a8"/>
      <stop offset="60%" stop-color="#1e6091"/>
      <stop offset="100%" stop-color="#154365"/>
    </radialGradient>
    <linearGradient id="satelliteGradient" x1="0%" y1="0%" x2="100%" y2="100%">
      <stop offset="0%" stop-color="#f59e0b"/>
      <stop offset="100%" stop-color="#dc2626"/>
    </linearGradient>
  </defs>
  
  <!-- Main Earth sphere -->
  <circle cx="32" cy="32" r="26" fill="url(#earthGradient)" stroke="#297bbe" stroke-width="1"/>
  
  <!-- Continental landmasses -->
  <path d="M18 28c4-3 9-1 13 1s8 6 11 4c3-2 4-5 7-4s5 4 2 7c-2 3-5 4-8 2s-7-2-10 1c-4 3-6 6-9 5s-5-4-3-7c1-2 2-5-1-6s-5 0-2-3z" fill="#4da3d9" opacity="0.9"/>
  <path d="M22 18c3-2 6 0 8 3s4 5 7 4c3-1 5-4 7-2s4 3 1 5c-2 2-4 3-6 1s-5-1-7 1c-3 2-4 4-6 3s-4-3-2-5c1-2 1-4-1-4s-4 0-1-6z" fill="#4da3d9" opacity="0.7"/>
  <path d="M35 42c2-1 4 1 5 2s2 3 4 2c1-1 2-2 3-1s2 1 0 2c-1 1-2 2-3 1s-3 0-4 1c-1 1-2 2-3 1s-2-1-1-2c0-1 0-2-1-2s-2 0 0-4z" fill="#4da3d9" opacity="0.6"/>
  
  <!-- Satellite orbits -->
  <circle cx="32" cy="32" r="35" stroke="#4da3d9" stroke-width="0.8" stroke-dasharray="4 4" fill="none" opacity="0.8"/>
  <circle cx="32" cy="32" r="42" stroke="#4da3d9" stroke-width="0.6" stroke-dasharray="6 6" fill="none" opacity="0.6"/>
  <circle cx="32" cy="32" r="49" stroke="#4da3d9" stroke-width="0.4" stroke-dasharray="8 8" fill="none" opacity="0.4"/>
  
  <!-- Satellites with solar panels -->
  <g transform="translate(58,18) rotate(45)">
    <rect x="-3" y="-1.5" width="6" height="3" fill="url(#satelliteGradient)" rx="1"/>
    <rect x="-5" y="-0.5" width="2" height="1" fill="#059669" rx="0.5"/>
    <rect x="3" y="-0.5" width="2" height="1" fill="#059669" rx="0.5"/>
    <circle cx="0" cy="0" r="1" fill="#ffffff"/>
  </g>
  
  <g transform="translate(8,42) rotate(-30)">
    <rect x="-3" y="-1.5" width="6" height="3" fill="url(#satelliteGradient)" rx="1"/>
    <rect x="-5" y="-0.5" width="2" height="1" fill="#059669" rx="0.5"/>
    <rect x="3" y="-0.5" width="2" height="1" fill="#059669" rx="0.5"/>
    <circle cx="0" cy="0" r="1" fill="#ffffff"/>
  </g>
  
  <g transform="translate(46,8) rotate(120)">
    <rect x="-2.5" y="-1" width="5" height="2" fill="url(#satelliteGradient)" rx="1"/>
    <rect x="-4" y="-0.5" width="1.5" height="1" fill="#059669" rx="0.5"/>
    <rect x="2.5" y="-0.5" width="1.5" height="1" fill="#059669" rx="0.5"/>
    <circle cx="0" cy="0" r="0.8" fill="#ffffff"/>
  </g>
  
  <!-- Data transmission beams -->
  <path d="M56 20 Q44 26 34 30" stroke="#059669" stroke-width="1.5" stroke-dasharray="2 3" opacity="0.9" fill="none"/>
  <path d="M10 40 Q22 36 30 34" stroke="#059669" stroke-width="1.5" stroke-dasharray="2 3" opacity="0.9" fill="none"/>
  <path d="M44 10 Q38 21 33 28" stroke="#059669" stroke-width="1.2" stroke-dasharray="2 3" opacity="0.8" fill="none"/>
  
  <!-- Central fusion core -->
  <circle cx="32" cy="32" r="5" fill="#059669" opacity="0.9"/>
  <circle cx="32" cy="32" r="3" fill="#ffffff"/>
  <circle cx="32" cy="32" r="1.5" fill="#1e6091"/>
  
  <!-- Data processing indicators around core -->
  <circle cx="27" cy="27" r="1" fill="#f59e0b" opacity="0.8">
    <animate attributeName="opacity" values="0.8;0.3;0.8" dur="2s" repeatCount="indefinite"/>
  </circle>
  <circle cx="37" cy="27" r="1" fill="#f59e0b" opacity="0.8">
    <animate attributeName="opacity" values="0.3;0.8;0.3" dur="2s" repeatCount="indefinite"/>
  </circle>
  <circle cx="37" cy="37" r="1" fill="#f59e0b" opacity="0.8">
    <animate attributeName="opacity" values="0.8;0.3;0.8" dur="2s" repeatCount="indefinite"/>
  </circle>
  <circle cx="27" cy="37" r="1" fill="#f59e0b" opacity="0.8">
    <animate attributeName="opacity" values="0.3;0.8;0.3" dur="2s" repeatCount="indefinite"/>
  </circle>
</svg>